<svg xmlns="http://www.w3.org/2000/svg">	
	<symbol id="chevron" viewBox="0 0 50 60">
		<polyline stroke-linejoin="round" fill="none" stroke-linecap="butt" stroke-width="2" stroke="rgb(255,255,255)" points="14 10 34 30 14 50"/>
	</symbol>
	
	<symbol id="hamburger" viewBox="0 0 44 44" >
		<g class="svg-menu-toggle">
			<g class="svg-hamburger" fill="#fff" >					
				<rect class="bar" x="4" y="9" width="36" height="2"/>
				<rect class="bar" x="4" y="20" width="36" height="2"/>
				<rect class="bar" x="4" y="20" width="36" height="2"/>
				<rect class="bar" x="4" y="31" width="36" height="2"/>
			</g>
		</g>
	</symbol>
	
	<symbol id="close">
		<g stroke="#fff" stroke-width="1">
			<line x1="0" y1="0" x2="100%" y2="100%"/>
			<line x1="0" y1="100%" x2="100%" y2="0"/>
		</g>
	</symbol>
	

	<symbol id="phone" viewBox="0 0 24 24">
		<path d="M0 0h24v24h-24z" fill="none"/>
		<path d="M6.62 10.79c1.44 2.83 3.76 5.14 6.59 6.59l2.2-2.2c.27-.27.67-.36 1.02-.24 1.12.37 2.33.57 3.57.57.55 0 1 .45 1 1v3.49c0 .55-.45 1-1 1-9.39 0-17-7.61-17-17 0-.55.45-1 1-1h3.5c.55 0 1 .45 1 1 0 1.25.2 2.45.57 3.57.11.35.03.74-.25 1.02l-2.2 2.2z"/>
	</symbol>
	
	
	<symbol id="email" viewBox="0 0 14 14" >
		<path d="M7,9L5.268,7.484l-4.952,4.245C0.496,11.896,0.739,12,1.007,12h11.986
			c0.267,0,0.509-0.104,0.688-0.271L8.732,7.484L7,9z"/>
		<path d="M13.684,2.271C13.504,2.103,13.262,2,12.993,2H1.007C0.74,2,0.498,2.104,0.318,2.273L7,8
			L13.684,2.271z"/>
		<polygon points="0,2.878 0,11.186 4.833,7.079"/>
		<polygon points="9.167,7.079 14,11.186 14,2.875"/>
	</symbol>
	
	<symbol id="pin" viewBox="0 0 16 16">
		<path d="M7.987,0C4.891,0,2.381,2.51,2.381,5.606c0,0.237,0.019,0.468,0.048,0.697
			c0.479,4.379,5.194,9.426,5.194,9.426c0.084,0.094,0.165,0.152,0.243,0.194l0.004,0.002l0.157,0.05l0.157-0.05l0.004-0.002
			c0.078-0.042,0.159-0.103,0.243-0.194c0,0,4.647-5.056,5.115-9.436c0.028-0.226,0.047-0.455,0.047-0.688
			C13.592,2.51,11.083,0,7.987,0z M7.987,9.212c-1.988,0-3.606-1.618-3.606-3.606S5.999,2,7.987,2s3.605,1.618,3.605,3.606
			S9.975,9.212,7.987,9.212z"/>
	</symbol>
	
	<symbol id="search" viewBox="0 0 62.993 62.993">
		<path style="fill:#fff;" d="M62.58,60.594L41.313,39.329c3.712-4.18,5.988-9.66,5.988-15.677
		c0-13.042-10.609-23.651-23.65-23.651C10.609,0.001,0,10.61,0,23.652c0,13.041,10.609,23.65,23.651,23.65
		c6.016,0,11.497-2.276,15.677-5.988l21.265,21.267c0.273,0.273,0.634,0.411,0.993,0.411c0.36,0,0.721-0.138,0.994-0.411
		C63.13,62.03,63.13,61.143,62.58,60.594z M23.651,44.492c-11.492,0-20.841-9.348-20.841-20.84S12.159,2.811,23.651,2.811
		c11.491,0,20.84,9.349,20.84,20.841c0,5.241-1.958,10.023-5.163,13.689c-0.619,0.706-1.281,1.368-1.987,1.987
		C33.675,42.534,28.892,44.492,23.651,44.492z"/>
	</symbol>
</svg>